HIERARCHY
ROOT Hips
{
  OFFSET 183.877 103.25 50.0293
  CHANNELS 6 Xposition Yposition Zposition Zrotation Xrotation Yrotation
  JOINT RightUpLeg
  {
    OFFSET -8.9458 -8.66707 0.101652
    CHANNELS 3 Zrotation Xrotation Yrotation
    JOINT RightLeg
    {
      OFFSET 0 -44.4227 1.3727
      CHANNELS 3 Zrotation Xrotation Yrotation
      JOINT RightFoot
      {
        OFFSET 0.253549 -42.0924 -1.46059
        CHANNELS 3 Zrotation Xrotation Yrotation
        JOINT RightToes
        {
          OFFSET 0.04 -4.41509 8.4991
          CHANNELS 3 Zrotation Xrotation Yrotation
          End Site
          {
            OFFSET -0.08 -0.137448 9.77979
          }
        }
      }
    }
  }
  JOINT Spine
  {
    OFFSET 0 11.8905 0
    CHANNELS 3 Zrotation Xrotation Yrotation
    JOINT Spine1
    {
      OFFSET 0 25.6574 0.127663
      CHANNELS 3 Zrotation Xrotation Yrotation
      JOINT HEad
      {
        OFFSET 0 8.73416 0.011341
        CHANNELS 3 Zrotation Xrotation Yrotation
        End Site
        {
          OFFSET -0.29 12.7742 2.51395
        }
      }
      JOINT LeftShoulder1
      {
        OFFSET 8.99 -0.362252 -0.22
        CHANNELS 3 Zrotation Xrotation Yrotation
        JOINT LeftArm
        {
          OFFSET 10.2827 -0.00338 0.322123
          CHANNELS 3 Zrotation Xrotation Yrotation
          JOINT LeftForeArm
          {
            OFFSET 32.7669 0.099144 -1.42434
            CHANNELS 3 Zrotation Xrotation Yrotation
            JOINT LeftHand
            {
              OFFSET 27.5643 0.085362 1.02216
              CHANNELS 3 Zrotation Xrotation Yrotation
              End Site
              {
                OFFSET 16.7443 -0.6 1.50291
              }
            }
          }
        }
      }
      JOINT RightShoulder
      {
        OFFSET -8.99 -0.362252 -0.22
        CHANNELS 3 Zrotation Xrotation Yrotation
        JOINT RightArm
        {
          OFFSET -10.2827 -0.00338 0.322123
          CHANNELS 3 Zrotation Xrotation Yrotation
          JOINT RightForeArm
          {
            OFFSET -32.8971 0.099144 -1.42434
            CHANNELS 3 Zrotation Xrotation Yrotation
            JOINT RightHand
            {
              OFFSET -27.4921 0.085362 1.02216
              CHANNELS 3 Zrotation Xrotation Yrotation
              End Site
              {
                OFFSET -16.6312 -0.6 1.50291
              }
            }
          }
        }
      }
    }
  }
  JOINT LeftUpLeg
  {
    OFFSET 8.9458 -8.66707 0.101652
    CHANNELS 3 Zrotation Xrotation Yrotation
    JOINT LeftLeg
    {
      OFFSET 0 -44.4227 1.3727
      CHANNELS 3 Zrotation Xrotation Yrotation
      JOINT LeftFoot
      {
        OFFSET -0.253549 -42.0924 -1.46059
        CHANNELS 3 Zrotation Xrotation Yrotation
        JOINT LeftToes
        {
          OFFSET -0.04 -4.41509 8.4991
          CHANNELS 3 Zrotation Xrotation Yrotation
          End Site
          {
            OFFSET 0.08 -0.047448 9.77979
          }
        }
      }
    }
  }
}
MOTION
Frames:	9
Frame Time:	0.0166667
172.9391	102.625	-179.905	3.40153	-0.774223	-163.338	1.02859	0.0722811	-2.03447	4.34463	16.8459	-21.0114	10.6565	-15.0556	-28.6459	0.0462048	0.000533964	0.662642	-0.15618	-4.10633	-0.930883	-0.380908	-8.20677	-1.88052	-6.5347	7.50263	23.7375	-1.19E-15	-4.77E-15	-1.59E-15	-41.6184	41.2813	-53.3997	-32.5001	21.8625	-99.1921	-5.62593	7.31617	9.75402	-1.19E-15	-4.77E-15	-1.59E-15	48.3114	53.7475	37.6408	13.6614	18.5218	86.8071	26.7497	0.259917	2.52687	11.4324	-36.1256	21.6376	-0.859062	27.7071	2.23707	-8.77948	-16.6973	-6.4851	1.59E-14	3.18E-14	9.54E-15
173.2511	102.632	-180.895	3.7306	-0.714998	-163.046	1.77626	0.897094	-1.85958	4.34954	16.2293	-20.9178	10.5737	-14.891	-28.5133	0.0462048	0.000533964	0.662642	-0.123699	-4.11181	-0.843343	-0.309457	-8.21856	-1.70244	-6.06245	7.44258	23.7041	3.98E-16	-1.59E-15	0.00E+00	-41.8346	40.932	-52.8529	-32.4524	22.0901	-99.2879	-5.8537	7.20193	9.78493	3.98E-16	-1.59E-15	0.00E+00	48.3468	53.8889	37.8027	13.5131	18.4145	86.8378	26.8121	0.544326	2.29552	11.607	-35.6708	21.4402	-0.330984	23.0439	2.3712	-5.88487	-16.8594	-4.95772	1.91E-14	2.54E-14	9.54E-15
173.4641	102.632	-181.936	4.07947	-0.64557	-163.004	2.39932	1.66146	-1.88018	4.42906	15.7769	-20.5796	10.5181	-14.6876	-28.2915	0.0462048	0.000533964	0.662642	-0.0876565	-4.11921	-0.749721	-0.230421	-8.23413	-1.5119	-5.57249	7.28804	23.8261	7.95E-16	1.59E-15	-1.59E-15	-41.9844	40.5334	-52.3798	-32.4278	22.2128	-99.3381	-6.02512	7.1649	9.80943	7.95E-16	1.59E-15	-1.59E-15	48.1678	53.9697	38.174	13.3917	18.3518	86.9099	26.8435	0.82294	2.08835	11.8824	-35.0016	21.8515	0.304395	18.6699	1.5329	-3.97878	-16.9058	-5.57356	1.59E-14	3.50E-14	0.00E+00
173.6261	102.633	-183.008	4.47057	-0.537543	-163.2	2.99282	2.39875	-1.83006	4.50639	15.4986	-20.1554	10.5494	-14.4042	-28.0979	0.0462048	0.000533964	0.662642	-0.0378722	-4.1308	-0.652233	-0.123533	-8.25812	-1.31259	-5.05114	7.05701	24.1174	3.98E-16	-1.59E-15	0.00E+00	-42.0679	40.136	-51.9722	-32.408	22.2567	-99.3375	-6.11789	7.17905	9.8445	3.98E-16	-1.59E-15	0.00E+00	47.9218	53.9946	38.614	13.2241	18.377	87.0244	26.8757	1.08851	1.90088	12.6401	-34.0699	22.9772	0.482433	14.7342	0.708094	-2.61294	-16.8624	-7.53748	9.54E-15	3.18E-14	3.18E-15
173.6991	102.623	-184.157	4.92474	-0.437946	-163.59	3.59534	3.03627	-1.59573	4.60198	15.4099	-19.8393	10.6637	-14.0538	-27.8929	0.0462048	0.000533964	0.662642	0.0321902	-4.13639	-0.551885	0.0243841	-8.27012	-1.10602	-4.50887	6.71797	24.5194	-3.98E-16	0.00E+00	1.59E-15	-42.0468	39.7152	-51.7028	-32.4029	22.2687	-99.3115	-6.1474	7.2285	9.80693	-3.98E-16	0.00E+00	1.59E-15	47.5547	53.9186	39.2322	13.0025	18.442	87.1384	26.9752	1.31739	1.73338	13.8778	-33.0622	24.468	0.275396	11.7888	0.079116	-1.7637	-17.2861	-9.63279	1.27E-14	2.54E-14	3.18E-15
173.6981	102.577	-185.382	5.38935	-0.36948	-164.032	4.12147	3.61985	-1.29705	4.7345	15.5009	-19.5731	10.8758	-13.7166	-27.7059	0.0462048	0.000533964	0.662642	0.106595	-4.13848	-0.457746	0.18062	-8.27489	-0.911581	-3.98034	6.30315	24.9102	3.98E-16	-1.59E-15	1.59E-15	-41.9004	39.3522	-51.6574	-32.3378	22.2533	-99.3261	-6.11774	7.30498	9.74039	3.98E-16	-1.59E-15	1.59E-15	47.0746	53.7854	39.9238	12.6826	18.4554	87.3295	27.1764	1.49928	1.61488	15.1664	-32.2981	25.7339	-0.0403329	10.1424	0.543622	-2.03153	-18.1984	-12.4793	1.27E-14	3.18E-14	9.54E-15
173.6021	102.471	-186.704	5.81192	-0.507602	-164.225	4.51598	3.96257	-1.07376	4.89979	15.8413	-19.3809	11.1558	-13.5909	-27.5574	0.0462048	0.000533964	0.662642	0.157406	-4.17383	-0.429918	0.284419	-8.34594	-0.851962	-3.53087	5.78167	25.1811	2.65E-31	-3.18E-15	4.77E-15	-41.6246	39.0919	-51.9585	-32.1581	22.2	-99.3976	-6.03379	7.40525	9.671	2.65E-31	-3.18E-15	4.77E-15	46.5304	53.5079	40.5701	12.2952	18.4532	87.5631	27.4409	1.5667	1.59843	15.9722	-32.356	26.0951	-0.0186781	9.88657	2.40768	-2.51077	-19.5616	-14.4711	1.59E-14	1.91E-14	9.54E-15
173.4241	102.294	-188.097	6.16367	-0.842413	-164.122	4.7632	4.06001	-0.839793	5.12319	16.4402	-19.4272	11.5304	-13.6538	-27.3987	0.0462048	0.000533964	0.662642	0.169478	-4.23673	-0.45602	0.306264	-8.47189	-0.903409	-3.15585	5.15838	25.259	-1.19E-15	0.00E+00	3.18E-15	-41.2168	38.981	-52.6182	-31.946	22.1052	-99.4582	-5.93623	7.50873	9.58599	-1.19E-15	0.00E+00	3.18E-15	46.1099	53.0045	40.9646	12.045	18.5146	87.741	27.6639	1.54865	1.65881	16.4466	-33.204	25.6385	0.190225	10.9718	4.49015	-2.96642	-20.8156	-15.0061	1.27E-14	3.18E-14	6.36E-15
173.1921	102.067	-189.503	6.36039	-1.21596	-163.766	4.82263	4.07056	-0.57665	5.44226	17.2562	-19.8686	12.014	-13.8469	-27.1459	0.0462048	0.000533964	0.662642	0.13168	-4.30619	-0.539938	0.22345	-8.61065	-1.07474	-2.86407	4.53495	25.1916	-7.95E-16	1.59E-15	1.59E-15	-40.8737	39.0246	-53.3541	-31.843	22.0156	-99.419	-5.84758	7.58199	9.51154	-7.95E-16	1.59E-15	1.59E-15	46.0332	52.386	40.8891	12.0619	18.7021	87.8271	27.7745	1.47534	1.7204	16.7371	-34.3254	25.2729	0.278613	13.0826	5.56706	-2.75951	-21.8096	-13.7039	9.54E-15	3.18E-14	0.00E+00
